 http://www.imdb.com/title/tt0036775/

Source: Double.Indemnity.1944.720p.BluRay.X264-AMIABLE Thanks!

Subs: Arabic, Croatian, Dutch, English, Italian, Polish, Servian and Swedish.

Sample and Screens included.

General
Complete name                            : Double Indemnity-720p MP4 AAC x264 BRRip 1944-CC.mp4
Format                                   : MPEG-4
Format profile                           : Base Media
Codec ID                                 : isom
File size                                : 2.64 GiB
Duration                                 : 1h 47mn
Overall bit rate mode                    : Variable
Overall bit rate                         : 3 516 Kbps
Encoded date                             : UTC 2013-02-10 07:19:03

Video
ID                                       : 1
Format                                   : AVC
Format/Info                              : Advanced Video Codec
Format profile                           : High@L4.1
Format settings, CABAC                   : Yes
Format settings, ReFrames                : 5 frames
Codec ID                                 : avc1
Codec ID/Info                            : Advanced Video Coding
Duration                                 : 1h 47mn
Bit rate                                 : 3 362 Kbps
Maximum bit rate                         : 15.0 Mbps
Width                                    : 944 pixels
Height                                   : 720 pixels
Display aspect ratio                     : 4:3
Frame rate mode                          : Variable
Frame rate                               : 23.976 fps
Minimum frame rate                       : 23.256 fps
Maximum frame rate                       : 25.000 fps
Color space                              : YUV
Chroma subsampling                       : 4:2:0
Bit depth                                : 8 bits
Scan type                                : Progressive
Bits/(Pixel*Frame)                       : 0.206
Stream size                              : 2.52 GiB (95%)
Writing library                          : x264 core 112

Audio
ID                                       : 2
Format                                   : AAC
Format/Info                              : Advanced Audio Codec
Format profile                           : LC
Codec ID                                 : 40
Duration                                 : 1h 47mn
Bit rate mode                            : Variable
Bit rate                                 : 167 Kbps
Maximum bit rate                         : 364 Kbps
Channel(s)                               : 2 channels
Channel positions                        : Front: L R
Sampling rate                            : 48.0 KHz
Compression mode                         : Lossy
Delay relative to video                  : 83ms
Stream size                              : 129 MiB (5%)
Language                                 : English

Enjoy...

Requested by mrmuvis 

Coming soon: Apocalypse Hitler, Cruel Intentions, Mortal Kombat and more...